<svg xmlns="http://www.w3.org/2000/svg" width="316" height="287" viewBox="0 0 316 287" version="1.1"><path d="M 153.250 39.743 C 157.512 39.931, 164.488 39.931, 168.750 39.743 C 173.012 39.556, 169.525 39.402, 161 39.402 C 152.475 39.402, 148.988 39.556, 153.250 39.743 M 137.500 41 L 135.500 41.859 137.500 41.830 C 138.600 41.814, 140.625 41.440, 142 41 L 144.500 40.199 142 40.170 C 140.625 40.154, 138.600 40.527, 137.500 41 M 180 41 C 181.375 41.440, 183.400 41.801, 184.500 41.801 C 186.084 41.801, 185.980 41.634, 184 41 C 182.625 40.560, 180.600 40.199, 179.500 40.199 C 177.916 40.199, 178.020 40.366, 180 41 M 129 43.014 C 127.945 43.706, 128.538 43.807, 131 43.355 C 135.313 42.564, 136.126 41.995, 132.917 42.015 C 131.588 42.024, 129.825 42.473, 129 43.014 M 189 43 C 190.375 43.440, 192.175 43.839, 193 43.885 C 194.333 43.960, 194.333 43.862, 193 43 C 192.175 42.467, 190.375 42.069, 189 42.115 L 186.500 42.199 189 43 M 120 46 C 114.036 48.502, 116.111 48.541, 122.500 46.046 C 125.250 44.972, 126.825 44.098, 126 44.103 C 125.175 44.108, 122.475 44.961, 120 46 M 201.946 47.005 C 206.041 48.620, 209.548 49.786, 209.739 49.595 C 210.211 49.122, 197.293 43.991, 195.739 44.034 C 195.058 44.053, 197.851 45.390, 201.946 47.005 M 100.915 55.102 C 91.457 60.837, 81.473 68.699, 75.439 75.166 C 70.617 80.333, 60 94.328, 60 95.516 C 60 95.977, 62.623 92.787, 65.830 88.427 C 75.988 74.614, 87.587 64.070, 101.982 55.564 C 107.160 52.504, 110.932 50, 110.364 50 C 109.795 50, 105.543 52.296, 100.915 55.102 M 212.559 51.468 C 213.626 52.276, 214.830 52.951, 215.232 52.968 C 216.365 53.017, 228.532 60.616, 231.611 63.198 C 233.122 64.464, 236.089 67.026, 238.205 68.890 C 240.322 70.755, 242.279 72.054, 242.556 71.778 C 243.229 71.105, 230.882 61.159, 224 56.831 C 215.626 51.564, 207.895 47.940, 212.559 51.468 M 247.338 77.750 C 249.800 80.362, 252.791 83.625, 253.987 85 C 255.373 86.595, 255.679 86.745, 254.830 85.415 C 252.679 82.044, 244.572 73.024, 243.682 73.011 C 243.232 73.005, 244.877 75.138, 247.338 77.750 M 193.250 84.735 C 195.863 84.941, 200.137 84.941, 202.750 84.735 C 205.363 84.529, 203.225 84.360, 198 84.360 C 192.775 84.360, 190.637 84.529, 193.250 84.735 M 183.077 87.589 C 181.385 89.013, 180.014 90.700, 180.030 91.339 C 180.047 91.978, 180.537 91.682, 181.118 90.682 C 181.700 89.682, 183.599 87.996, 185.338 86.936 C 187.077 85.875, 187.972 85.006, 187.327 85.004 C 186.681 85.002, 184.769 86.165, 183.077 87.589 M 209.500 85.953 C 211.420 86.823, 216.776 87.390, 215.917 86.633 C 215.688 86.431, 213.700 85.991, 211.500 85.656 C 208.712 85.232, 208.106 85.322, 209.500 85.953 M 218 88 C 218.825 88.533, 219.950 88.969, 220.500 88.969 C 221.050 88.969, 220.825 88.533, 220 88 C 219.175 87.467, 218.050 87.031, 217.500 87.031 C 216.950 87.031, 217.175 87.467, 218 88 M 260.431 94.857 C 262.878 98.903, 265.201 102.503, 265.593 102.857 C 266.988 104.116, 260.460 92.898, 258.241 90.223 C 256.999 88.725, 257.985 90.810, 260.431 94.857 M 228.528 92.367 C 237.031 96.473, 244.036 102.520, 246.903 108.228 C 248.084 110.578, 248.761 111.375, 248.409 110 C 247.667 107.107, 243.639 101.487, 240.011 98.282 C 237.018 95.639, 224.767 89, 222.882 89 C 222.153 89, 224.694 90.515, 228.528 92.367 M 179.195 95.500 C 179.215 97.150, 179.439 97.704, 179.693 96.731 C 179.947 95.758, 179.930 94.408, 179.656 93.731 C 179.382 93.054, 179.175 93.850, 179.195 95.500 M 197.014 97.250 C 186.968 104.869, 184.306 105.640, 181.477 101.750 C 179.986 99.700, 179.871 99.676, 180.180 101.479 C 180.367 102.568, 181.710 103.878, 183.166 104.389 C 186.444 105.542, 190.169 104.116, 195 99.860 C 199.893 95.549, 202.529 94.705, 205.809 96.401 C 209.028 98.066, 211.553 100.744, 214.648 105.777 C 215.907 107.824, 216.952 109.147, 216.969 108.715 C 217.070 106.165, 209.793 97.497, 205.800 95.411 C 202.133 93.495, 201.902 93.543, 197.014 97.250 M 57.058 100.626 C 55.881 102.620, 55.082 104.415, 55.282 104.615 C 55.481 104.814, 56.653 103.183, 57.886 100.989 C 60.687 96.006, 59.970 95.692, 57.058 100.626 M 266.071 104.500 C 266.071 105.050, 266.714 106.625, 267.500 108 C 268.286 109.375, 268.929 110.050, 268.929 109.500 C 268.929 108.950, 268.286 107.375, 267.500 106 C 266.714 104.625, 266.071 103.950, 266.071 104.500 M 51.765 112.238 C 47.534 122.647, 44.288 133.621, 45.178 134.511 C 45.427 134.760, 46.210 132.610, 46.918 129.732 C 48.606 122.868, 50.355 117.602, 52.941 111.608 C 54.101 108.918, 54.884 106.550, 54.680 106.347 C 54.477 106.143, 53.165 108.794, 51.765 112.238 M 269.114 111.500 C 269.133 112.050, 270.014 114.300, 271.072 116.500 C 272.130 118.700, 272.715 119.375, 272.373 118 C 271.668 115.169, 269.062 109.970, 269.114 111.500 M 249.158 115 C 249.158 116.375, 249.385 116.938, 249.662 116.250 C 249.940 115.563, 249.940 114.438, 249.662 113.750 C 249.385 113.063, 249.158 113.625, 249.158 115 M 159.269 114.693 C 160.242 114.947, 161.592 114.930, 162.269 114.656 C 162.946 114.382, 162.150 114.175, 160.500 114.195 C 158.850 114.215, 158.296 114.439, 159.269 114.693 M 149.236 117.036 C 146.891 118.077, 141.881 122.096, 138.102 125.965 C 133.559 130.618, 130.460 133, 128.950 133 C 127.694 133, 126.946 133.279, 127.287 133.620 C 128.812 135.145, 133.058 132.515, 140 125.745 C 145.560 120.322, 148.793 118.002, 152.500 116.777 C 155.250 115.867, 156.600 115.127, 155.500 115.132 C 154.400 115.137, 151.581 115.994, 149.236 117.036 M 167.750 116.973 C 170.088 118.034, 172 119.374, 172 119.951 C 172 120.528, 172.563 120.982, 173.250 120.959 C 175.363 120.891, 167.710 114.999, 165.538 115.022 C 164.226 115.036, 165.014 115.731, 167.750 116.973 M 226.424 116.941 L 229.348 118.868 224.924 119.259 C 220.872 119.618, 220.983 119.665, 226.250 119.825 C 229.412 119.921, 232 119.819, 232 119.599 C 232 119.067, 225.082 114.998, 224.193 115.007 C 223.812 115.010, 224.816 115.881, 226.424 116.941 M 214.455 121.455 C 211.988 123.921, 211.163 127, 212.969 127 C 213.501 127, 213.739 126.438, 213.497 125.750 C 212.969 124.251, 214.750 121.785, 217.500 120.208 C 218.600 119.577, 218.917 119.047, 218.205 119.030 C 217.492 119.014, 215.805 120.105, 214.455 121.455 M 248.205 126.594 C 247.509 130.267, 247.113 133.447, 247.327 133.661 C 247.912 134.245, 250.290 122.371, 249.852 121.056 C 249.643 120.429, 248.902 122.921, 248.205 126.594 M 273.091 121.568 C 273.041 122.156, 273.643 124.856, 274.430 127.568 C 275.216 130.281, 276.055 133.625, 276.294 135 L 276.728 137.500 276.850 135 C 276.968 132.589, 273.277 119.398, 273.091 121.568 M 176.610 128.500 C 177.433 132.177, 178.005 132.975, 177.985 130.417 C 177.976 129.363, 177.513 127.825, 176.954 127 C 176.213 125.905, 176.120 126.309, 176.610 128.500 M 216.684 127.285 C 218.532 128.313, 217.532 128.502, 210.184 128.510 C 203.402 128.517, 200.466 128.995, 196.777 130.692 C 191.795 132.983, 188.010 137.754, 188.004 141.750 C 188 143.844, 188.398 143.987, 193.750 143.815 L 199.500 143.630 194.250 143.263 C 188.460 142.858, 187.925 141.979, 190.473 137.053 C 191.328 135.399, 193.949 133.218, 196.723 131.852 C 200.771 129.859, 203.001 129.504, 211.329 129.523 C 220.893 129.545, 221.099 129.498, 218.968 127.773 C 217.764 126.798, 216.266 126.016, 215.639 126.035 C 215.013 126.055, 215.483 126.617, 216.684 127.285 M 114.861 135.033 C 116.159 136.115, 117.734 136.984, 118.361 136.965 C 118.987 136.945, 118.400 136.320, 117.056 135.575 C 114.793 134.322, 114.755 134.185, 116.556 133.727 C 117.861 133.395, 117.515 133.205, 115.500 133.149 L 112.500 133.067 114.861 135.033 M 178.168 136.542 C 178.021 140.088, 178.530 141.104, 182.322 144.825 C 186.159 148.591, 186.917 148.949, 189.072 148.011 L 191.500 146.954 188.928 147.451 C 185.122 148.187, 179.266 141.897, 178.732 136.500 L 178.336 132.500 178.168 136.542 M 120.762 134.707 C 122.006 134.946, 123.806 134.937, 124.762 134.687 C 125.718 134.437, 124.700 134.241, 122.500 134.252 C 120.300 134.263, 119.518 134.468, 120.762 134.707 M 245.624 136.539 C 245.281 137.432, 245.029 138.689, 245.063 139.332 C 245.098 139.974, 245.558 139.422, 246.085 138.105 C 246.612 136.787, 246.864 135.531, 246.645 135.312 C 246.426 135.093, 245.966 135.645, 245.624 136.539 M 43.642 143.147 C 42.850 150.730, 42.950 165.801, 43.838 172.500 C 44.202 175.250, 44.500 168.387, 44.500 157.250 C 44.500 146.113, 44.452 137, 44.392 137 C 44.333 137, 43.996 139.766, 43.642 143.147 M 121 138.013 C 121.825 138.539, 123.813 138.976, 125.417 138.985 C 129.285 139.005, 128.443 138.428, 123.500 137.670 C 120.776 137.252, 119.979 137.362, 121 138.013 M 227.189 141.762 C 226.535 143.946, 226.044 146.580, 226.098 147.616 C 226.152 148.652, 226.783 147.475, 227.500 145 L 228.804 140.500 229.101 148.500 L 229.397 156.500 229.739 149.445 C 229.926 145.565, 229.697 141.355, 229.229 140.091 C 228.440 137.956, 228.294 138.076, 227.189 141.762 M 277.500 156.500 C 277.500 166.285, 277.812 172.538, 278.192 170.396 C 278.573 168.253, 278.885 162, 278.885 156.500 C 278.885 151, 278.573 144.747, 278.192 142.604 C 277.812 140.462, 277.500 146.715, 277.500 156.500 M 138.136 143.191 C 138.061 144.671, 138.450 146.160, 139 146.500 C 139.550 146.840, 140 149.311, 140 151.991 C 140 156.223, 140.380 157.135, 142.891 158.922 C 144.481 160.054, 146.730 162.897, 147.890 165.240 C 149.050 167.583, 149.999 168.886, 149.999 168.136 C 150.001 165.611, 145.768 159.215, 143.374 158.124 C 141.353 157.204, 141 156.325, 141 152.221 C 141 149.570, 140.588 146.972, 140.085 146.450 C 139.581 145.928, 138.968 144.375, 138.721 143 C 138.273 140.502, 138.272 140.502, 138.136 143.191 M 242.507 143.987 C 240.358 148.142, 235.063 154, 233.455 154 C 232.720 154, 231.840 154.450, 231.500 155 C 230.137 157.205, 233.215 155.801, 236.756 152.602 C 240.151 149.535, 245.913 141, 244.590 141 C 244.294 141, 243.356 142.344, 242.507 143.987 M 201.441 145.532 C 203.274 146.918, 203.190 147.007, 199.941 147.132 L 196.500 147.263 200 147.938 C 201.925 148.309, 203.867 148.430, 204.315 148.207 C 205.354 147.690, 202.056 143.989, 200.595 144.032 C 199.993 144.049, 200.374 144.724, 201.441 145.532 M 224.432 153.511 C 224.013 155.743, 224.225 157.566, 225.014 158.517 C 225.697 159.339, 226.602 161.472, 227.025 163.256 C 227.694 166.073, 227.809 166.168, 227.898 163.973 C 227.954 162.582, 227.280 160.417, 226.400 159.161 C 225.288 157.574, 224.997 155.828, 225.446 153.439 C 225.800 151.547, 225.866 150, 225.591 150 C 225.316 150, 224.794 151.580, 224.432 153.511 M 162.878 165.191 C 164.535 167.399, 161.856 173.645, 155.329 182.791 C 151.290 188.452, 150.537 189.087, 149.833 187.425 C 149.033 185.538, 149.022 185.538, 149.258 187.417 C 149.391 188.472, 149.957 189.486, 150.515 189.672 C 151.629 190.043, 160.854 176.730, 163.639 170.730 C 165.324 167.100, 165.319 166.897, 163.499 165.230 C 161.813 163.686, 161.746 163.682, 162.878 165.191 M 157 168.032 C 155.014 169.749, 152.743 170.870, 151.749 170.622 C 150.785 170.383, 150.249 170.595, 150.558 171.093 C 151.592 172.767, 153.641 172.023, 157.583 168.542 C 159.738 166.640, 161.275 165.066, 161 165.044 C 160.725 165.022, 158.925 166.367, 157 168.032 M 77.315 168.007 C 74.836 169.006, 72.629 172.517, 73.356 174.305 C 73.631 174.981, 73.876 174.771, 73.921 173.823 C 74.057 170.937, 79.070 167.764, 82.432 168.436 C 86.409 169.232, 89.914 171.637, 90.990 174.308 C 91.567 175.739, 91.895 175.953, 91.937 174.924 C 92.017 172.926, 88.344 169.453, 84.685 168.067 C 81.399 166.822, 80.280 166.812, 77.315 168.007 M 227.136 172.800 C 226.822 178.102, 220.775 185.608, 214.835 188.068 C 211.038 189.641, 211.245 191.032, 215.250 190.864 C 217.613 190.765, 217.884 190.609, 216.243 190.293 C 214.227 189.905, 214.492 189.519, 218.729 186.679 C 223.975 183.164, 228.391 176.316, 227.707 172.758 L 227.272 170.500 227.136 172.800 M 72.300 181 C 72.300 184.025, 72.487 185.262, 72.716 183.750 C 72.945 182.238, 72.945 179.762, 72.716 178.250 C 72.487 176.738, 72.300 177.975, 72.300 181 M 276.136 178 C 276.046 179.375, 275.741 181.625, 275.458 183 L 274.944 185.500 276.018 183.039 C 276.609 181.685, 276.914 179.435, 276.696 178.039 L 276.300 175.500 276.136 178 M 45.170 179.500 C 45.154 180.600, 45.527 182.400, 46 183.500 C 47.095 186.048, 47.095 183.419, 46 180 C 45.356 177.990, 45.194 177.892, 45.170 179.500 M 90.854 178.724 C 90.659 179.190, 89.037 180.599, 87.250 181.854 C 85.463 183.109, 84 184.556, 84 185.068 C 84 185.581, 84.787 185.302, 85.750 184.448 C 86.713 183.595, 88.625 182.059, 90 181.035 C 91.375 180.010, 92.209 178.880, 91.854 178.524 C 91.499 178.167, 91.049 178.257, 90.854 178.724 M 138.464 179.326 C 132.909 181.474, 127.951 186.538, 128.039 189.973 C 128.061 190.813, 128.678 190.150, 129.412 188.500 C 131.345 184.150, 134.814 181.383, 140.500 179.657 C 143.250 178.822, 144.600 178.142, 143.500 178.146 C 142.400 178.149, 140.134 178.680, 138.464 179.326 M 150.314 181.607 C 150.099 185.759, 150.294 185.712, 151.800 181.250 C 152.632 178.782, 152.608 178.001, 151.698 178.004 C 151.025 178.007, 150.418 179.585, 150.314 181.607 M 47.015 187.583 C 47.024 188.637, 47.487 190.175, 48.046 191 C 48.787 192.095, 48.880 191.691, 48.390 189.500 C 47.567 185.823, 46.995 185.025, 47.015 187.583 M 273.571 188.571 C 273.204 190.037, 273.128 191.461, 273.403 191.736 C 273.678 192.011, 274.204 191.037, 274.571 189.571 C 274.939 188.106, 275.015 186.682, 274.740 186.407 C 274.465 186.132, 273.939 187.106, 273.571 188.571 M 73.232 190 C 73.232 191.925, 73.438 192.713, 73.689 191.750 C 73.941 190.787, 73.941 189.213, 73.689 188.250 C 73.438 187.287, 73.232 188.075, 73.232 190 M 84.040 187.300 C 83.928 189.528, 87.514 194.242, 92.704 198.691 C 100.764 205.601, 109.666 212.001, 111.207 211.994 C 112.054 211.990, 112.543 210.427, 112.626 207.460 C 112.790 201.551, 115.061 199, 120.155 199 C 122.270 199, 124 199.415, 124 199.923 C 124 201.682, 129.185 207, 130.839 206.937 C 132.035 206.891, 131.886 206.626, 130.308 205.990 C 129.103 205.505, 127.334 203.846, 126.378 202.304 C 123.785 198.121, 121.983 196.971, 119.088 197.653 C 114.886 198.643, 112.142 201.872, 111.422 206.673 L 110.762 211.074 108.131 209.405 C 98.944 203.576, 88.029 193.898, 85.681 189.500 C 84.801 187.850, 84.062 186.860, 84.040 187.300 M 201.731 190.031 C 202.154 191.939, 202.500 200.450, 202.500 208.945 C 202.500 225.742, 203.628 225.023, 203.981 208 C 204.126 201.052, 204.470 198.346, 205 200 C 206.413 204.413, 206.051 200.294, 204.504 194.352 C 202.835 187.948, 200.443 184.219, 201.731 190.031 M 221 190.419 C 221 191.200, 218.750 194.301, 216 197.310 C 213.250 200.319, 211 203.118, 211 203.530 C 211 203.942, 211.780 204.850, 212.734 205.548 C 214.353 206.731, 214.245 207.371, 211.114 215.158 C 209.269 219.746, 207.169 223.978, 206.446 224.562 C 205.053 225.688, 203.359 231, 204.394 231 C 205.074 231, 210.690 219.090, 213.477 211.735 C 215.213 207.155, 215.214 206.894, 213.491 204.991 C 211.748 203.064, 211.839 202.864, 216.850 197.565 C 221.220 192.944, 223.362 189, 221.500 189 C 221.225 189, 221 189.639, 221 190.419 M 49.506 195.484 C 50.912 201.944, 63.704 226, 65.732 226 C 66.006 226, 65.418 224.762, 64.426 223.250 C 59.407 215.601, 55.310 207.996, 52.248 200.645 C 50.382 196.165, 49.148 193.843, 49.506 195.484 M 271.624 194.539 C 271.281 195.432, 271.029 196.689, 271.063 197.332 C 271.098 197.974, 271.558 197.422, 272.085 196.105 C 272.612 194.787, 272.864 193.531, 272.645 193.312 C 272.426 193.093, 271.966 193.645, 271.624 194.539 M 74.069 194.585 C 73.944 196.545, 78.146 208.386, 81.043 214.235 C 84.138 220.485, 89.401 228.512, 91.086 229.553 C 91.669 229.914, 90.591 228.024, 88.691 225.354 C 84.007 218.775, 80.200 211.075, 76.898 201.500 C 75.380 197.100, 74.107 193.988, 74.069 194.585 M 128.079 198.500 C 128.075 199.600, 128.714 201.625, 129.500 203 C 131.326 206.194, 131.334 205.511, 129.529 200.500 C 128.736 198.300, 128.084 197.400, 128.079 198.500 M 266.698 206.971 C 255.792 230.048, 236.393 249.871, 213.382 261.452 C 208.374 263.973, 206.224 264.601, 205.282 263.819 C 204.377 263.068, 204 263.068, 204 263.819 C 204 266.257, 206.407 265.934, 213.067 262.603 C 230.339 253.962, 248.510 238.176, 258.654 223 C 263.538 215.693, 271.528 200.195, 270.791 199.457 C 270.588 199.255, 268.746 202.636, 266.698 206.971 M 206.365 213.500 C 206.368 219, 206.536 221.122, 206.738 218.216 C 206.941 215.311, 206.939 210.811, 206.734 208.216 C 206.528 205.622, 206.363 208, 206.365 213.500 M 178.781 219.358 C 172.795 226.519, 160.165 231.313, 157.079 227.595 C 155.749 225.993, 155.981 221.655, 157.617 217.503 C 158.049 216.405, 155.050 218.533, 150.952 222.233 C 146.853 225.933, 140.600 230.994, 137.055 233.480 C 133.510 235.966, 130.978 238, 131.428 238 C 132.799 238, 144.429 229.374, 150.330 223.981 L 155.891 218.899 155.311 222.472 C 154.637 226.625, 156.953 230, 160.477 230 C 164.776 230, 171.980 226.770, 176.445 222.840 C 181.036 218.799, 182.483 219.401, 179.298 224.027 C 177.773 226.242, 177.768 226.361, 179.247 225.170 C 181.018 223.743, 183.382 217.647, 182.820 215.959 C 182.632 215.395, 180.814 216.925, 178.781 219.358 M 200.500 228 C 200.120 229.729, 200.035 231.368, 200.310 231.643 C 200.585 231.918, 201.120 230.729, 201.500 229 C 201.880 227.271, 201.965 225.632, 201.690 225.357 C 201.415 225.082, 200.880 226.271, 200.500 228 M 69.808 231.750 C 75.852 238.936, 85.732 248.076, 93.077 253.274 C 99.833 258.055, 115.552 266.300, 120 267.395 L 122.500 268.011 120 266.830 C 107.062 260.721, 100.998 257.488, 95.015 253.510 C 87.045 248.211, 73.505 235.830, 69.912 230.556 C 68.586 228.608, 67.121 227.011, 66.657 227.007 C 66.193 227.003, 67.611 229.137, 69.808 231.750 M 173.853 229.174 C 172.397 230.309, 168.572 231.846, 165.353 232.591 L 159.500 233.945 164.477 233.377 C 169.395 232.816, 176.276 229.981, 177.491 228.014 C 178.503 226.377, 176.707 226.949, 173.853 229.174 M 150.073 231.635 C 148.933 233.084, 148.034 235.222, 148.076 236.385 C 148.134 237.995, 148.433 237.734, 149.326 235.294 C 151.088 230.483, 152.531 229.388, 154.507 231.364 C 155.407 232.264, 156.898 232.971, 157.821 232.937 C 159.075 232.889, 158.957 232.654, 157.352 232.007 C 156.171 231.530, 154.907 230.659, 154.543 230.070 C 153.499 228.380, 152.304 228.798, 150.073 231.635 M 95.999 235.148 C 102.722 241.224, 106.883 243.007, 114.210 242.955 C 117.670 242.930, 121.850 242.248, 123.500 241.440 C 125.150 240.631, 125.600 240.274, 124.500 240.645 C 123.400 241.016, 119.248 241.521, 115.272 241.768 C 108.841 242.167, 107.574 241.934, 103.772 239.648 C 101.423 238.236, 97.977 235.712, 96.114 234.040 C 94.252 232.368, 92.452 231.018, 92.114 231.041 C 91.777 231.064, 93.524 232.912, 95.999 235.148 M 197.754 236.944 C 196.799 239.375, 194.900 241.700, 192.848 242.951 C 191.007 244.074, 190.002 244.994, 190.615 244.996 C 192.733 245.003, 197.247 240.653, 198.680 237.224 C 199.470 235.332, 199.936 233.603, 199.714 233.381 C 199.493 233.160, 198.611 234.763, 197.754 236.944 M 148.110 242.500 C 148.165 244.939, 151.827 255.111, 151.890 253 C 151.915 252.175, 151.064 249.025, 150 246 C 148.936 242.975, 148.085 241.400, 148.110 242.500 M 179 245.948 C 180.375 246.382, 184.035 247.478, 187.133 248.383 C 193.638 250.283, 197.051 252.707, 201.108 258.307 C 202.698 260.503, 204 261.817, 204 261.227 C 204 260.026, 199.568 254.431, 196.500 251.757 C 195.400 250.799, 192.341 249.224, 189.702 248.257 C 185.497 246.717, 185.188 246.420, 187.202 245.850 C 188.520 245.477, 186.727 245.191, 183 245.179 C 178.401 245.164, 177.231 245.389, 179 245.948 M 152.252 259.500 C 152.263 261.700, 152.468 262.482, 152.707 261.238 C 152.946 259.994, 152.937 258.194, 152.687 257.238 C 152.437 256.282, 152.241 257.300, 152.252 259.500 M 151.116 265.300 C 151.052 266.289, 150.290 268.473, 149.422 270.151 C 147.926 273.044, 147.599 273.175, 143.172 272.652 C 139.911 272.268, 139.255 272.358, 141 272.951 C 146.241 274.732, 148.447 274.182, 150.368 270.615 C 151.371 268.753, 151.975 266.391, 151.711 265.365 C 151.268 263.640, 151.223 263.635, 151.116 265.300 M 124.500 269 C 125.600 269.473, 127.175 269.859, 128 269.859 C 128.945 269.859, 128.761 269.542, 127.500 269 C 126.400 268.527, 124.825 268.141, 124 268.141 C 123.055 268.141, 123.239 268.458, 124.500 269 M 131 271.013 C 131.825 271.539, 133.813 271.976, 135.417 271.985 C 139.285 272.005, 138.443 271.428, 133.500 270.670 C 130.776 270.252, 129.979 270.362, 131 271.013" stroke="none" fill="#6d6d6d" fill-rule="evenodd"/><path d="M 136.646 42.025 C 107.724 48.591, 83.680 64.185, 66.527 87.500 C 56.888 100.601, 52.271 110.529, 46.760 130 C 44.939 136.433, 44.633 140.202, 44.613 156.500 C 44.593 173.206, 44.866 176.526, 46.879 184 C 50.350 196.883, 54.505 206.879, 60.579 216.954 C 67.339 228.167, 68.324 229.402, 78.964 240.013 C 95.651 256.655, 117.305 267.948, 140.409 272.057 C 146.785 273.192, 147.422 273.144, 148.668 271.439 C 152.355 266.397, 152.874 257.853, 150 249.500 C 147.201 241.365, 147.346 234.872, 150.405 231.315 C 152.704 228.643, 152.896 228.596, 154.721 230.247 C 161.022 235.950, 175.617 231.442, 180.015 222.434 C 181.107 220.198, 182 218.143, 182 217.868 C 182 217.593, 179.820 219.469, 177.156 222.037 C 172.453 226.570, 165.268 230, 160.477 230 C 156.936 230, 154.637 226.626, 155.318 222.431 L 155.904 218.816 151.143 223.270 C 144.200 229.764, 134.432 236.732, 128.065 239.734 C 120.143 243.468, 109.904 244.012, 104.020 241.010 C 89.105 233.401, 74.392 207.121, 72.441 184.602 C 71.374 172.281, 75.384 165.827, 83.060 167.513 C 91.248 169.312, 95.073 178.051, 89.250 181.657 C 84.465 184.620, 83.886 185.874, 85.679 189.383 C 87.951 193.827, 98.731 203.441, 108.131 209.405 L 110.762 211.074 111.422 206.673 C 112.150 201.819, 114.890 198.643, 119.235 197.616 C 122.099 196.939, 123.534 197.970, 127.297 203.405 C 129.848 207.090, 131.376 206.627, 129.383 202.773 C 127.127 198.412, 127.202 189.874, 129.527 186.293 C 133.114 180.768, 138.656 178.190, 147.189 178.076 L 152.879 178 151.351 182.484 C 148.882 189.728, 150.297 189.843, 155.318 182.807 C 164.918 169.354, 166.387 161.089, 157.886 168.366 C 155.551 170.365, 153.059 172, 152.349 172 C 151.639 172, 149.893 169.536, 148.468 166.525 C 147.044 163.513, 144.556 160.108, 142.939 158.957 C 140.375 157.131, 140 156.241, 140 151.991 C 140 149.311, 139.500 146.809, 138.890 146.432 C 138.240 146.030, 138.006 144.348, 138.327 142.373 L 138.874 139 131.020 139 C 125.501 139, 121.836 138.430, 118.693 137.083 C 111.971 134.201, 111.602 132.620, 117.853 133.480 C 127.376 134.790, 130.703 133.542, 138.219 125.846 C 146.326 117.543, 151.932 114.753, 160.660 114.678 C 165.822 114.634, 167.379 115.052, 170.275 117.261 C 174.650 120.597, 177.861 127.381, 178.653 134.957 C 179.188 140.072, 179.751 141.303, 182.885 144.205 C 186.471 147.526, 186.567 147.550, 194.833 147.198 C 202.199 146.884, 202.954 146.681, 201.333 145.453 C 200.277 144.652, 197.064 144.050, 193.750 144.032 C 188.462 144.003, 188 143.819, 188.004 141.750 C 188.010 137.754, 191.795 132.983, 196.777 130.692 C 200.466 128.995, 203.402 128.517, 210.184 128.510 C 217.276 128.502, 218.477 128.291, 216.735 127.358 C 215.561 126.730, 214.016 126.441, 213.300 126.715 C 211.085 127.565, 211.855 124.054, 214.455 121.455 C 216.533 119.376, 217.874 118.996, 223.205 118.973 L 229.500 118.946 223.825 115.438 C 219.900 113.012, 217.314 110.476, 215.439 107.215 C 212.063 101.340, 209.276 98.214, 205.806 96.408 C 202.530 94.704, 199.897 95.545, 195 99.860 C 190.166 104.119, 186.444 105.542, 183.162 104.388 C 181.020 103.635, 180.348 102.565, 179.662 98.809 C 178.662 93.334, 180.018 89.777, 184.318 86.594 C 186.492 84.984, 188.989 84.424, 195.265 84.139 C 216.313 83.184, 241.150 94.423, 247.619 107.831 C 253.153 119.301, 247.436 142.953, 236.809 152.554 C 234.711 154.449, 232.096 156, 230.997 156 C 229.181 156, 228.991 155.297, 228.903 148.250 L 228.806 140.500 226.760 148.374 C 224.843 155.755, 224.818 156.421, 226.357 159.028 C 227.456 160.888, 227.995 164.075, 227.984 168.654 C 227.963 177.294, 225.414 182.178, 218.478 186.864 L 213.500 190.227 217.750 189.837 C 223.446 189.315, 223.276 190.771, 216.850 197.565 C 211.839 202.864, 211.748 203.064, 213.491 204.991 C 215.214 206.894, 215.213 207.155, 213.477 211.735 C 210.320 220.068, 204.918 231.251, 204.333 230.666 C 204.023 230.356, 204.271 228.662, 204.884 226.902 C 206.142 223.293, 206.226 203.828, 205 200 C 204.472 198.351, 204.165 200.802, 204.100 207.201 C 203.992 217.688, 202.981 224.009, 199.857 233.722 C 197.575 240.817, 193.952 244.543, 188.304 245.603 L 184.667 246.285 189.679 248.155 C 195.301 250.252, 201.570 255.888, 203.614 260.682 C 204.359 262.432, 205.335 264.089, 205.782 264.366 C 206.912 265.064, 218.790 258.958, 227.277 253.316 C 236.087 247.459, 250.096 233.693, 256.415 224.684 C 292.031 173.901, 282.756 105.249, 235 66.181 C 232.525 64.157, 230.275 62.230, 230 61.899 C 229.725 61.569, 227.700 60.178, 225.500 58.808 C 212.273 50.573, 201.228 45.957, 186.314 42.433 C 177.504 40.351, 173.741 40.017, 160.258 40.121 C 149.120 40.206, 142.197 40.764, 136.646 42.025" stroke="none" fill="#050505" fill-rule="evenodd"/></svg>