<?xml version="1.0" encoding="UTF-8"?>
<svg version="1.1" xmlns="http://www.w3.org/2000/svg" width="500" height="500">
<path d="M0 0 C165 0 330 0 500 0 C500 165 500 330 500 500 C335 500 170 500 0 500 C0 335 0 170 0 0 Z " fill="#030303" transform="translate(0,0)"/>
<path d="M0 0 C165 0 330 0 500 0 C500 165 500 330 500 500 C335 500 170 500 0 500 C0 335 0 170 0 0 Z M210 7 C208.88383301 7.15549316 207.76766602 7.31098633 206.61767578 7.47119141 C200.09298452 8.41042895 193.87458136 10.05494942 187.5625 11.9375 C184.09630153 12.97127849 180.61446888 13.92332667 177.125 14.875 C141.98253398 25.03245696 108.94479098 43.97951316 82.6875 69.453125 C80 72 80 72 77 74 C77 74.66 77 75.32 77 76 C76.34 76 75.68 76 75 76 C73.53129272 77.41319919 73.53129272 77.41319919 72 79.3125 C69.14132897 82.68608692 66.20078591 85.95118348 63.1875 89.1875 C53.13428196 100.25818874 44.82013517 112.29043944 37 125 C36.6095752 125.63212402 36.21915039 126.26424805 35.81689453 126.91552734 C24.05232343 146.21350709 15.85660851 167.23259102 10 189 C9.79294434 189.74088867 9.58588867 190.48177734 9.37255859 191.24511719 C-2.61605386 234.49300137 0.03421036 282.53617778 13.40625 325.08642578 C13.97013128 326.90373724 14.50163003 328.73100361 15.03125 330.55859375 C17.12144777 337.71414982 19.77677946 344.28851956 23 351 C23.60757785 352.32325238 24.21288819 353.64754733 24.81640625 354.97265625 C31.83195975 370.29440154 40.16368264 384.32572148 50 398 C50.61464111 398.85658203 50.61464111 398.85658203 51.24169922 399.73046875 C60.0703735 411.9119415 70.54651868 422.59441384 81.125 433.25 C81.65714111 433.78689453 82.18928223 434.32378906 82.73754883 434.87695312 C87.15426906 439.86817047 87.15426906 439.86817047 93 442 C93.495 443.485 93.495 443.485 94 445 C95.5662264 446.46390015 95.5662264 446.46390015 97.54296875 447.8203125 C98.2798291 448.35116455 99.01668945 448.8820166 99.77587891 449.42895508 C100.96963135 450.26849731 100.96963135 450.26849731 102.1875 451.125 C103.00395996 451.70467529 103.82041992 452.28435059 104.66162109 452.8815918 C107.09870221 454.60116995 109.54591525 456.30479455 112 458 C112.6482373 458.44778809 113.29647461 458.89557617 113.96435547 459.35693359 C122.89275842 465.45682632 132.22301721 470.40490438 142 475 C143.17272461 475.5573584 143.17272461 475.5573584 144.36914062 476.12597656 C163.13358461 485.00145424 181.70732806 490.73888816 202 495 C203.50656159 495.32528392 205.01307573 495.6507877 206.51953125 495.9765625 C212.07924986 497.15018569 217.28456506 498.16354407 223 498 C223.967407 496.31768531 224.92347446 494.62884803 225.875 492.9375 C226.40867188 491.99777344 226.94234375 491.05804688 227.4921875 490.08984375 C230.74230852 483.42962165 231.33008239 477.45925472 231.25 470.1875 C231.24250732 469.29675781 231.23501465 468.40601563 231.22729492 467.48828125 C231.11214001 460.46833499 230.91725064 453.87657261 227.75390625 447.48046875 C224.39412626 440.67524865 223.46542592 434.81195429 223.375 427.3125 C223.35228027 426.43360107 223.32956055 425.55470215 223.30615234 424.64916992 C223.38967232 417.36307905 225.66972707 411.80830517 230.47802734 406.30981445 C232 405 232 405 235 404 C235.226875 404.5775 235.45375 405.155 235.6875 405.75 C237.91048868 409.56083774 240.85788992 411.61929664 245 413 C258.84430119 413.95859342 271.05118415 412.03842209 282 403 C282.33 402.01 282.66 401.02 283 400 C283.60457031 399.73316406 284.20914062 399.46632813 284.83203125 399.19140625 C289.70344201 396.51432466 291.8691407 389.91219144 294 385 C294.73881583 381.85573727 294.94496824 379.24687381 295 376 C292.26564957 379.36409762 292.26564957 379.36409762 289.71484375 382.8671875 C282.27690205 393.51649678 270.16931179 401.43622378 257.296875 403.76171875 C245.19003795 405.01770015 245.19003795 405.01770015 240 403 C237.33567985 395.00703955 238.7769839 386.59710939 242 379 C240.93513145 379.89301656 239.87324959 380.7895947 238.8125 381.6875 C238.22082031 382.18636719 237.62914062 382.68523437 237.01953125 383.19921875 C233.75220026 386.11264155 230.72363298 389.2544756 227.67578125 392.39453125 C222.10902832 398.09010161 216.35032236 403.19853675 210 408 C209.113125 408.680625 208.22625 409.36125 207.3125 410.0625 C201.15609442 414.67980418 194.852992 418.51206338 188 422 C186.45892578 422.79083984 186.45892578 422.79083984 184.88671875 423.59765625 C181.9370753 425.09268101 178.97549361 426.5572067 176 428 C175.01193359 428.48146484 175.01193359 428.48146484 174.00390625 428.97265625 C162.50318022 434.25820932 146.25175725 435.46069768 134.2265625 431.0390625 C127.16575672 427.7440198 121.24847707 423.67376313 115.59375 418.3203125 C114.08824262 416.7873487 114.08824262 416.7873487 112 417 C111.73832031 416.40960938 111.47664063 415.81921875 111.20703125 415.2109375 C109.9360512 412.88286401 108.60869648 411.43970001 106.6875 409.625 C102.06054292 405.12309582 98.29729443 400.5751355 95 395 C94.35804687 393.97648437 93.71609375 392.95296875 93.0546875 391.8984375 C76.11937526 364.70449654 63.93823646 333.82961274 63.75 301.5 C63.729375 300.61441406 63.70875 299.72882813 63.6875 298.81640625 C63.64313792 291.26376233 65.23095712 284.59317327 69 278 C75.46948092 274.4864026 83.90728481 275.12331669 90.8125 277.125 C95.88431886 279.07073415 100.32003442 282.23200302 103.1640625 286.91796875 C104.64071138 290.5957905 104.65950109 294.11701909 104 298 C101.74627066 302.40501644 98.55386369 304.3652797 94 306 C90.26481365 309.25413509 90.26481365 309.25413509 88.83984375 313.8125 C89.17918937 321.41384186 92.96570391 325.59001017 98 331 C98.74636719 331.8146875 99.49273437 332.629375 100.26171875 333.46875 C110.85234586 344.53201666 123.52289568 353.22258928 136 362 C136.61375488 362.46180664 137.22750977 362.92361328 137.85986328 363.39941406 C141.52335831 366.28027147 141.52335831 366.28027147 146 367 C146.00257813 365.865625 146.00515625 364.73125 146.0078125 363.5625 C146.28894855 348.64244432 146.28894855 348.64244432 151.27734375 343.3828125 C156.39764044 339.27264236 161.95554573 338.10844347 168.4140625 338.25 C171.8682783 339.25182694 172.63986023 340.62147481 174.4375 343.6875 C175.30677834 345.45096436 176.16245691 347.22124399 177 349 C179.35537916 352.25596531 181.55490696 354.88849136 185 357 C185.99 357 186.98 357 188 357 C187.71125 356.43539063 187.4225 355.87078125 187.125 355.2890625 C181.83826702 344.53202942 177.71155221 332.51835077 181.0625 320.5625 C183.00450748 315.1939697 186.75087593 308.62456204 192 306 C192 305.34 192 304.68 192 304 C192.56460938 303.87625 193.12921875 303.7525 193.7109375 303.625 C196.15181049 302.95855004 198.32295759 302.04708284 200.625 301 C201.40101563 300.649375 202.17703125 300.29875 202.9765625 299.9375 C204.3271857 299.31172863 205.66860289 298.66569856 207 298 C208.88472859 297.84655791 210.77427874 297.75040429 212.6640625 297.68359375 C213.78554687 297.64169922 214.90703125 297.59980469 216.0625 297.55664062 C217.238125 297.51732422 218.41375 297.47800781 219.625 297.4375 C220.80835938 297.39431641 221.99171875 297.35113281 223.2109375 297.30664062 C226.14050328 297.20032574 229.07015588 297.09829358 232 297 C231.6390625 297.81082031 231.278125 298.62164062 230.90625 299.45703125 C227.77971515 306.91729079 226.2712136 312.91856854 227 321 C227.66 321 228.32 321 229 321 C230.40216945 319.35639407 230.40216945 319.35639407 231.79296875 317.1953125 C232.33751709 316.38908447 232.88206543 315.58285645 233.44311523 314.75219727 C234.01876221 313.88522217 234.59440918 313.01824707 235.1875 312.125 C236.36919932 310.36548745 237.55148511 308.60636862 238.734375 306.84765625 C239.30091797 306.00219238 239.86746094 305.15672852 240.45117188 304.28564453 C242.22413408 301.66923972 244.07168119 299.11329283 245.9375 296.5625 C251.47640631 288.63399072 255.83905831 280.81744296 256 271 C254.9236509 269.73745077 254.9236509 269.73745077 252.4375 269.5 C247.39162432 270.23394555 244.34197991 273.25087533 241 277 C241 277.66 241 278.32 241 279 C236.24109471 281.37945265 233.45161235 282.10095578 228 282 C227.69707031 281.0821875 227.39414063 280.164375 227.08203125 279.21875 C222.61599485 265.87626403 222.61599485 265.87626403 213 256 C211.4221875 254.88625 211.4221875 254.88625 209.8125 253.75 C207.26906447 251.82389937 207.26906447 251.82389937 205 252 C205.165 250.741875 205.33 249.48375 205.5 248.1875 C205.89747002 244.49921205 206.15123099 240.83377628 206.25 237.125 C206.27578125 236.22007812 206.3015625 235.31515625 206.328125 234.3828125 C205.93083685 231.49774377 205.03076952 230.96730797 203 229 C202.671875 226.9140625 202.671875 226.9140625 202.75 224.625 C202.77320313 223.49964844 202.77320313 223.49964844 202.796875 222.3515625 C203.01335758 219.84536029 203.49024688 217.46142315 204 215 C203.29093506 214.98541748 202.58187012 214.97083496 201.85131836 214.95581055 C167.4988105 214.16766626 167.4988105 214.16766626 154.85546875 206.98828125 C153.05617203 205.84329802 153.05617203 205.84329802 151 206 C150.67 205.01 150.34 204.02 150 203 C149.34 203 148.68 203 148 203 C148 202.34 148 201.68 148 201 C148.83660156 201.2165625 149.67320312 201.433125 150.53515625 201.65625 C164.60440375 205.0216514 178.12417146 205.9971324 191.203125 198.78515625 C196.38620365 195.26515205 199.97702774 190.52312866 203.8125 185.62890625 C205.7694268 183.27709958 207.70488828 181.37207252 210.0625 179.4375 C211.031875 178.633125 212.00125 177.82875 213 177 C213 176.34 213 175.68 213 175 C213.721875 174.72929687 214.44375 174.45859375 215.1875 174.1796875 C217.95738641 173.01787403 220.41355818 171.64690022 223 170.125 C234.8847696 163.61629397 247.50908434 160.71416482 260.84765625 164.1875 C270.54684171 167.8488985 277.47916951 175.3399599 281.8125 184.5625 C284.27064281 190.20867786 286.11052191 195.51331501 286.0703125 201.71484375 C286.08704103 211.45177682 286.89675541 217.95634088 293.85888672 225.18383789 C297.13378483 228.26009695 300.47425257 231.21402459 304 234 C304.60457031 233.67386719 305.20914062 233.34773437 305.83203125 233.01171875 C310.45151932 231.53644451 314.86978323 231.75118947 319.6875 231.8125 C320.63044922 231.81314453 321.57339844 231.81378906 322.54492188 231.81445312 C328.74827149 231.85282436 334.8405893 232.26987752 341 233 C339.7847517 229.35425511 338.25020693 228.76394143 334.984375 226.96484375 C330.8447563 224.95207639 327.56417329 223.74767886 322.91796875 223.8046875 C321.98662109 223.81113281 321.05527344 223.81757813 320.09570312 223.82421875 C319.13599609 223.84097656 318.17628906 223.85773438 317.1875 223.875 C316.20845703 223.88402344 315.22941406 223.89304688 314.22070312 223.90234375 C311.81354939 223.92582818 309.40690257 223.9586716 307 224 C307.42687983 222.10174715 307.86699482 220.20646817 308.3125 218.3125 C308.55613281 217.25675781 308.79976563 216.20101562 309.05078125 215.11328125 C309.99363297 212.02088282 311.29600713 209.72543397 313 207 C313 206.34 313 205.68 313 205 C313.66 205 314.32 205 315 205 C315.495 204.443125 315.99 203.88625 316.5 203.3125 C327.41833263 193.21304231 344.02048885 192.54622488 358.171875 192.828125 C363.79498598 193.08059121 369.39698273 193.46272437 375 194 C373.25162516 190.50325031 369.56357377 189.28362006 366 188 C363.22693694 187.69031783 360.80153338 187.79989047 358 188 C358.65266469 185.99538701 359.32204472 183.99620166 360 182 C360.28875 181.0925 360.5775 180.185 360.875 179.25 C362.25097578 176.49804844 363.15675157 176.0560637 366 175 C366.7427417 174.65727051 367.4854834 174.31454102 368.25073242 173.96142578 C371.3965949 172.86130977 373.84862698 172.77190765 377.17578125 172.8046875 C378.33271484 172.81113281 379.48964844 172.81757813 380.68164062 172.82421875 C382.47891602 172.84935547 382.47891602 172.84935547 384.3125 172.875 C385.53001953 172.88402344 386.74753906 172.89304688 388.00195312 172.90234375 C391.00150274 172.92586963 394.00065044 172.95874347 397 173 C395.5973083 170.1946166 393.76142401 169.64108291 391 168.1875 C386.56924308 165.8394296 382.20392873 163.41332598 377.875 160.8828125 C375.89303905 159.78701071 375.89303905 159.78701071 373 160 C372.71334473 159.41750488 372.42668945 158.83500977 372.13134766 158.23486328 C364.84301315 143.83749295 356.89547351 129.44773676 342 122 C335.08696881 121.28485884 331.4166275 122.74626428 326 127 C323.66485635 129.0089396 321.37709506 131.06058853 319.1015625 133.13671875 C313.04466821 138.50686481 307.35140403 141.48775004 299.15234375 141.2421875 C296.00081104 140.88756857 294.31859526 140.17807434 292 138 C290.24058426 133.0304222 289.72859875 128.6290071 289.75 123.375 C289.74484375 122.10398437 289.7396875 120.83296875 289.734375 119.5234375 C290.20838911 113.23577972 292.27856645 110.10559439 297 106 C305.87962709 99.13757105 315.65776065 98.62741879 326.5625 98.6875 C327.61099121 98.69168945 328.65948242 98.69587891 329.73974609 98.70019531 C343.71895849 98.90108905 356.69687625 101.72595921 370 106 C370.75152344 106.23702637 371.50304687 106.47405273 372.27734375 106.71826172 C395.0293657 113.96705591 419.89696412 125.03523117 432 147 C438.6622713 163.36809818 438.1871591 178.99172677 434 196 C433.83371094 196.6894873 433.66742188 197.37897461 433.49609375 198.08935547 C430.05355415 211.96470257 424.78024272 225.36413771 415.34765625 236.30078125 C413.78679994 238.0700284 413.78679994 238.0700284 413 241 C412.01 241.33 411.02 241.66 410 242 C410 242.66 410 243.32 410 244 C409.319375 244.2475 408.63875 244.495 407.9375 244.75 C405.60895583 245.74086986 403.60051406 246.78054124 401.4375 248.0625 C398.69589604 249.60776768 396.96567136 250.3705249 394 251 C394.01740234 249.77990234 394.01740234 249.77990234 394.03515625 248.53515625 C394.11037315 238.98260998 393.64591051 229.52718005 393 220 C392.34 220 391.68 220 391 220 C388.2014589 231.2757219 385.4350527 242.45532234 384 254 C384.62447021 254.24862793 385.24894043 254.49725586 385.89233398 254.75341797 C389.10703883 256.65475967 389.42290234 258.9274109 390.44189453 262.38769531 C391.40289107 266.88579811 391.48754627 271.28901389 391.4375 275.875 C391.42614014 277.330271 391.42614014 277.330271 391.41455078 278.81494141 C391.17716621 289.11951118 388.84138107 296.50073194 382.171875 304.44140625 C380.79967963 305.94142585 380.79967963 305.94142585 381 308 C380.43023437 308.25910156 379.86046875 308.51820313 379.2734375 308.78515625 C376.79663736 310.10866972 374.79967349 311.66342426 372.625 313.4375 C369.19922033 316.15547395 366.00053588 318.25617667 362 320 C362 320.33 362 320.66 362 321 C367.61 321 373.22 321 379 321 C375.26804031 329.3969093 370.09640425 336.59832507 363 342.5 C361.515 343.7375 361.515 343.7375 360 345 C360 345.66 360 346.32 360 347 C358.68 347.66 357.36 348.32 356 349 C356 349.99 356 350.98 356 352 C357.98 352.99 359.96 353.98 362 355 C361.33191884 367.91623573 355.52111369 379.47506957 349.98535156 390.94824219 C348.15197571 394.76580678 346.36165163 398.6037225 344.5625 402.4375 C343.37572996 404.95867784 342.1878342 407.47932327 341 410 C341.11593506 409.42556152 341.23187012 408.85112305 341.35131836 408.25927734 C341.88107846 405.63139191 342.40930131 403.0031997 342.9375 400.375 C343.11990234 399.47136719 343.30230469 398.56773437 343.49023438 397.63671875 C343.66748047 396.75371094 343.84472656 395.87070312 344.02734375 394.9609375 C344.18968506 394.15446777 344.35202637 393.34799805 344.51928711 392.51708984 C349.21021898 367.95461776 345.13080011 343.59082884 338 320 C336.67000255 323.39105309 337.28142931 326.14120022 337.97973633 329.63354492 C341.72018496 348.45947227 341.53460772 369.14206447 338 388 C337.87109375 388.69528809 337.7421875 389.39057617 337.609375 390.10693359 C331.0763687 424.44302342 331.0763687 424.44302342 322 432 C315.89507133 435.81800301 310.20389272 438.00958994 303.015625 438.31640625 C302.08105469 438.35830078 301.14648438 438.40019531 300.18359375 438.44335938 C299.21550781 438.48267578 298.24742187 438.52199219 297.25 438.5625 C296.26644531 438.60568359 295.28289062 438.64886719 294.26953125 438.69335938 C291.84648725 438.79922052 289.4233446 438.90130171 287 439 C287 439.33 287 439.66 287 440 C287.83809204 440.15033691 287.83809204 440.15033691 288.69311523 440.30371094 C291.27686001 440.77411302 293.85703274 441.26195115 296.4375 441.75 C297.31599609 441.90726562 298.19449219 442.06453125 299.09960938 442.2265625 C314.00637252 445.08690082 326.87698151 452.77692669 336 465 C338.99250498 469.7502079 341.86417178 474.44993031 343 480 C348.8379162 479.44673343 353.54266625 477.14271134 358.75 474.625 C359.67159912 474.18164307 360.59319824 473.73828613 361.54272461 473.28149414 C375.27930934 466.54468338 388.01366534 458.50093291 400 449 C400.8353125 448.35675781 401.670625 447.71351563 402.53125 447.05078125 C422.04281212 431.83052789 438.40224922 413.91338276 453 394 C453.58394531 393.21367187 454.16789062 392.42734375 454.76953125 391.6171875 C477.89090351 359.66962396 491.0964212 321.38039447 495.70751953 282.41699219 C495.98427296 280.12996468 496.29724369 277.85107646 496.62109375 275.5703125 C502.08688265 235.28913222 495.1389978 190.8617641 478 154 C477.46632813 152.8140625 476.93265625 151.628125 476.3828125 150.40625 C470.09220554 136.52144485 463.30396238 122.98313092 454.23632812 110.68505859 C452.91407114 108.8828829 451.62148401 107.06128836 450.328125 105.23828125 C442.72276146 94.66497096 434.08806026 85.30805504 425 76 C424.13117188 75.09121094 423.26234375 74.18242188 422.3671875 73.24609375 C416.99805106 67.71338147 411.25346664 62.52173742 405 58 C404.34 58 403.68 58 403 58 C403 57.34 403 56.68 403 56 C401.09264777 54.51111296 399.19617183 53.15254826 397.1875 51.8125 C396.59364502 51.4103125 395.99979004 51.008125 395.38793945 50.59375 C393.59768391 49.38699757 391.80021624 48.19182868 390 47 C389.0925 46.39542969 388.185 45.79085937 387.25 45.16796875 C370.09558373 34.00190816 351.83511527 24.75288048 332.43359375 18.16796875 C330.49349269 17.50802539 328.55909228 16.82836289 326.64941406 16.08496094 C319.1877527 13.21551122 311.70384245 11.44575501 303.875 9.875 C302.08835937 9.49794922 302.08835937 9.49794922 300.265625 9.11328125 C284.23805201 5.83569405 268.75225634 4.6681402 252.42529297 4.73925781 C249.50336976 4.74998763 246.5820611 4.73928985 243.66015625 4.7265625 C232.28075826 4.71851997 221.26572129 5.36001873 210 7 Z " fill="#FDFDFD" transform="translate(0,0)"/>
<path d="M0 0 C0.33 0 0.66 0 1 0 C0.85588351 8.50287314 -2.35849519 14.93639989 -7 22 C-7.99 22.66 -8.98 23.32 -10 24 C-12 21 -12 21 -11.8125 19.125 C-10.08631195 14.61035432 -7.16012513 10.72945257 -4.375 6.8125 C-2.00553324 3.51500213 -2.00553324 3.51500213 0 0 Z " fill="#0C0C0C" transform="translate(294,376)"/>
<path d="M0 0 C6.93 0 13.86 0 21 0 C20.01 0.66 19.02 1.32 18 2 C19.32 2.66 20.64 3.32 22 4 C19.39579982 5.30210009 18.25729641 4.8132328 15.4296875 4.22265625 C14.53378906 4.03896484 13.63789063 3.85527344 12.71484375 3.66601562 C11.30912109 3.36727539 11.30912109 3.36727539 9.875 3.0625 C8.93011719 2.86720703 7.98523438 2.67191406 7.01171875 2.47070312 C4.67316334 1.9864568 2.33608912 1.49598428 0 1 C0 0.67 0 0.34 0 0 Z " fill="#393838" transform="translate(287,439)"/>
<path d="M0 0 C2.21650746 3.3247612 3.12605143 6.50539601 4.125 10.3125 C4.39763672 11.28993164 4.39763672 11.28993164 4.67578125 12.28710938 C5.73997502 16.28383711 6.19206149 19.87067786 6 24 C5.01 23.67 4.02 23.34 3 23 C2.49490361 19.91747911 1.99682001 16.83386475 1.5 13.75 C1.35691406 12.87730469 1.21382813 12.00460937 1.06640625 11.10546875 C0.93105469 10.26113281 0.79570312 9.41679687 0.65625 8.546875 C0.53056641 7.77182617 0.40488281 6.99677734 0.27539062 6.19824219 C0 4 0 4 0 0 Z " fill="#3F3D3E" transform="translate(337,320)"/>
<path d="M0 0 C0.33 0.66 0.66 1.32 1 2 C-0.1875 5.5625 -0.1875 5.5625 -2 9 C-3.875 9.625 -3.875 9.625 -6 10 C-8.7295585 12.47906969 -8.7295585 12.47906969 -11 15 C-11.66 14.34 -12.32 13.68 -13 13 C-12.319375 12.505 -11.63875 12.01 -10.9375 11.5 C-7.20762886 8.32564158 -4.16751394 4.7209774 -1 1 C-0.67 0.67 -0.34 0.34 0 0 Z " fill="#303030" transform="translate(241,379)"/>
<path d="M0 0 C0.33 0 0.66 0 1 0 C0.88590407 1.45922693 0.75834456 2.91740598 0.625 4.375 C0.55539062 5.18710937 0.48578125 5.99921875 0.4140625 6.8359375 C0 9 0 9 -2 11 C-4.66128684 12.54526333 -5.84915995 13 -9 13 C-8.43410156 12.22914063 -7.86820312 11.45828125 -7.28515625 10.6640625 C-6.55167969 9.66117187 -5.81820313 8.65828125 -5.0625 7.625 C-4.33160156 6.62726563 -3.60070312 5.62953125 -2.84765625 4.6015625 C-1.0220431 2.17182891 -1.0220431 2.17182891 0 0 Z " fill="#323232" transform="translate(294,376)"/>
<path d="M0 0 C2 2 2 2 2.22705078 3.97119141 C2.21657715 4.75671387 2.20610352 5.54223633 2.1953125 6.3515625 C2.18886719 7.20234375 2.18242187 8.053125 2.17578125 8.9296875 C2.15902344 9.81914062 2.14226562 10.70859375 2.125 11.625 C2.11597656 12.5221875 2.10695313 13.419375 2.09765625 14.34375 C2.0740497 16.56276586 2.0411231 18.78125077 2 21 C1.67 21 1.34 21 1 21 C1 15.39 1 9.78 1 4 C0.34 4 -0.32 4 -1 4 C-0.67 2.68 -0.34 1.36 0 0 Z " fill="#BEBDBD" transform="translate(392,216)"/>
<path d="M0 0 C0.66 0.33 1.32 0.66 2 1 C0.02 2.98 -1.96 4.96 -4 7 C-4.99 6.67 -5.98 6.34 -7 6 C-4.69 4.02 -2.38 2.04 0 0 Z " fill="#2F2F2F" transform="translate(99,55)"/>
<path d="M0 0 C0.66 0.66 1.32 1.32 2 2 C0.37660195 3.70884005 -1.29319053 5.37446717 -3 7 C-3.66 7 -4.32 7 -5 7 C-4.67 6.01 -4.34 5.02 -4 4 C-3.34 4 -2.68 4 -2 4 C-1.34 2.68 -0.68 1.36 0 0 Z " fill="#2E2E2E" transform="translate(415,237)"/>
</svg>
